<svg width="43" height="42" viewBox="0 0 43 42" fill="none" xmlns="http://www.w3.org/2000/svg">
<path d="M37.5498 7.875H6.0498C5.70171 7.875 5.36787 8.01328 5.12173 8.25942C4.87559 8.50556 4.7373 8.8394 4.7373 9.1875V31.5C4.7373 32.1962 5.01387 32.8639 5.50615 33.3562C5.99843 33.8484 6.66611 34.125 7.3623 34.125H36.2373C36.9335 34.125 37.6012 33.8484 38.0935 33.3562C38.5857 32.8639 38.8623 32.1962 38.8623 31.5V9.1875C38.8623 8.8394 38.724 8.50556 38.4779 8.25942C38.2317 8.01328 37.8979 7.875 37.5498 7.875ZM7.3623 18.375H13.9248V23.625H7.3623V18.375ZM16.5498 18.375H36.2373V23.625H16.5498V18.375ZM36.2373 10.5V15.75H7.3623V10.5H36.2373ZM7.3623 26.25H13.9248V31.5H7.3623V26.25ZM36.2373 31.5H16.5498V26.25H36.2373V31.5Z" fill="#0D6EFD"/>
</svg>
