<svg width="42" height="43" viewBox="0 0 42 43" fill="none" xmlns="http://www.w3.org/2000/svg">
<path d="M39.375 32H38.0625V9.6875C38.0625 8.99131 37.7859 8.32363 37.2937 7.83134C36.8014 7.33906 36.1337 7.0625 35.4375 7.0625H6.5625C5.86631 7.0625 5.19863 7.33906 4.70634 7.83134C4.21406 8.32363 3.9375 8.99131 3.9375 9.6875V32H2.625C2.2769 32 1.94306 32.1383 1.69692 32.3844C1.45078 32.6306 1.3125 32.9644 1.3125 33.3125C1.3125 33.6606 1.45078 33.9944 1.69692 34.2406C1.94306 34.4867 2.2769 34.625 2.625 34.625H39.375C39.7231 34.625 40.0569 34.4867 40.3031 34.2406C40.5492 33.9944 40.6875 33.6606 40.6875 33.3125C40.6875 32.9644 40.5492 32.6306 40.3031 32.3844C40.0569 32.1383 39.7231 32 39.375 32ZM6.5625 9.6875H35.4375V32H32.8125V28.0625C32.8125 27.7144 32.6742 27.3806 32.4281 27.1344C32.1819 26.8883 31.8481 26.75 31.5 26.75H19.6875C19.3394 26.75 19.0056 26.8883 18.7594 27.1344C18.5133 27.3806 18.375 27.7144 18.375 28.0625V32H11.8125V14.9375H30.1875V22.8125C30.1875 23.1606 30.3258 23.4944 30.5719 23.7406C30.8181 23.9867 31.1519 24.125 31.5 24.125C31.8481 24.125 32.1819 23.9867 32.4281 23.7406C32.6742 23.4944 32.8125 23.1606 32.8125 22.8125V13.625C32.8125 13.2769 32.6742 12.9431 32.4281 12.6969C32.1819 12.4508 31.8481 12.3125 31.5 12.3125H10.5C10.1519 12.3125 9.81806 12.4508 9.57192 12.6969C9.32578 12.9431 9.1875 13.2769 9.1875 13.625V32H6.5625V9.6875ZM30.1875 32H21V29.375H30.1875V32Z" fill="#0D6EFD"/>
</svg>
