<svg width="33" height="32" viewBox="0 0 33 32" fill="none" xmlns="http://www.w3.org/2000/svg">
<path d="M28.5006 15.9996C28.5006 16.2648 28.3952 16.5192 28.2077 16.7067C28.0201 16.8942 27.7658 16.9996 27.5006 16.9996H16.5006C16.2353 16.9996 15.981 16.8942 15.7934 16.7067C15.6059 16.5192 15.5006 16.2648 15.5006 15.9996C15.5006 15.7344 15.6059 15.48 15.7934 15.2925C15.981 15.1049 16.2353 14.9996 16.5006 14.9996H27.5006C27.7658 14.9996 28.0201 15.1049 28.2077 15.2925C28.3952 15.48 28.5006 15.7344 28.5006 15.9996ZM16.5006 8.99958H27.5006C27.7658 8.99958 28.0201 8.89422 28.2077 8.70669C28.3952 8.51915 28.5006 8.2648 28.5006 7.99958C28.5006 7.73436 28.3952 7.48001 28.2077 7.29247C28.0201 7.10494 27.7658 6.99958 27.5006 6.99958H16.5006C16.2353 6.99958 15.981 7.10494 15.7934 7.29247C15.6059 7.48001 15.5006 7.73436 15.5006 7.99958C15.5006 8.2648 15.6059 8.51915 15.7934 8.70669C15.981 8.89422 16.2353 8.99958 16.5006 8.99958ZM27.5006 22.9996H16.5006C16.2353 22.9996 15.981 23.1049 15.7934 23.2925C15.6059 23.48 15.5006 23.7344 15.5006 23.9996C15.5006 24.2648 15.6059 24.5192 15.7934 24.7067C15.981 24.8942 16.2353 24.9996 16.5006 24.9996H27.5006C27.7658 24.9996 28.0201 24.8942 28.2077 24.7067C28.3952 24.5192 28.5006 24.2648 28.5006 23.9996C28.5006 23.7344 28.3952 23.48 28.2077 23.2925C28.0201 23.1049 27.7658 22.9996 27.5006 22.9996ZM10.7931 5.29208L7.50056 8.58583L6.20806 7.29208C6.02042 7.10444 5.76592 6.99902 5.50056 6.99902C5.23519 6.99902 4.9807 7.10444 4.79306 7.29208C4.60542 7.47972 4.5 7.73422 4.5 7.99958C4.5 8.26494 4.60542 8.51944 4.79306 8.70708L6.79306 10.7071C6.88593 10.8001 6.99622 10.8738 7.11762 10.9241C7.23901 10.9745 7.36914 11.0004 7.50056 11.0004C7.63197 11.0004 7.7621 10.9745 7.8835 10.9241C8.00489 10.8738 8.11518 10.8001 8.20806 10.7071L12.2081 6.70708C12.3957 6.51944 12.5011 6.26494 12.5011 5.99958C12.5011 5.73422 12.3957 5.47972 12.2081 5.29208C12.0204 5.10444 11.7659 4.99902 11.5006 4.99902C11.2352 4.99902 10.9807 5.10444 10.7931 5.29208ZM10.7931 13.2921L7.50056 16.5858L6.20806 15.2921C6.02042 15.1044 5.76592 14.999 5.50056 14.999C5.23519 14.999 4.9807 15.1044 4.79306 15.2921C4.60542 15.4797 4.5 15.7342 4.5 15.9996C4.5 16.131 4.52588 16.2611 4.57616 16.3825C4.62645 16.5039 4.70015 16.6142 4.79306 16.7071L6.79306 18.7071C6.88593 18.8001 6.99622 18.8738 7.11762 18.9241C7.23901 18.9745 7.36914 19.0004 7.50056 19.0004C7.63197 19.0004 7.7621 18.9745 7.8835 18.9241C8.00489 18.8738 8.11518 18.8001 8.20806 18.7071L12.2081 14.7071C12.3957 14.5194 12.5011 14.2649 12.5011 13.9996C12.5011 13.7342 12.3957 13.4797 12.2081 13.2921C12.0204 13.1044 11.7659 12.999 11.5006 12.999C11.2352 12.999 10.9807 13.1044 10.7931 13.2921ZM10.7931 21.2921L7.50056 24.5858L6.20806 23.2921C6.11515 23.1992 6.00485 23.1255 5.88345 23.0752C5.76206 23.0249 5.63195 22.999 5.50056 22.999C5.36916 22.999 5.23905 23.0249 5.11766 23.0752C4.99627 23.1255 4.88597 23.1992 4.79306 23.2921C4.70015 23.385 4.62645 23.4953 4.57616 23.6167C4.52588 23.7381 4.5 23.8682 4.5 23.9996C4.5 24.131 4.52588 24.2611 4.57616 24.3825C4.62645 24.5039 4.70015 24.6142 4.79306 24.7071L6.79306 26.7071C6.88593 26.8001 6.99622 26.8738 7.11762 26.9241C7.23901 26.9745 7.36914 27.0004 7.50056 27.0004C7.63197 27.0004 7.7621 26.9745 7.8835 26.9241C8.00489 26.8738 8.11518 26.8001 8.20806 26.7071L12.2081 22.7071C12.3957 22.5194 12.5011 22.2649 12.5011 21.9996C12.5011 21.7342 12.3957 21.4797 12.2081 21.2921C12.0204 21.1044 11.7659 20.999 11.5006 20.999C11.2352 20.999 10.9807 21.1044 10.7931 21.2921Z" fill="#667185"/>
</svg>
