<svg width="14" height="14" viewBox="0 0 14 14" fill="none" xmlns="http://www.w3.org/2000/svg">
<path d="M10.0893 7.46452L5.71427 11.8395C5.59099 11.9628 5.42378 12.0321 5.24943 12.0321C5.07508 12.0321 4.90787 11.9628 4.78459 11.8395C4.6613 11.7162 4.59204 11.549 4.59204 11.3747C4.59204 11.2003 4.6613 11.0331 4.78459 10.9098L8.69529 7.00022L4.78568 3.08952C4.72464 3.02847 4.67621 2.956 4.64318 2.87625C4.61014 2.79649 4.59313 2.711 4.59313 2.62467C4.59313 2.53834 4.61014 2.45286 4.64318 2.3731C4.67621 2.29334 4.72464 2.22087 4.78568 2.15983C4.84672 2.09879 4.91919 2.05036 4.99895 2.01733C5.07871 1.98429 5.16419 1.96729 5.25052 1.96729C5.33685 1.96729 5.42234 1.98429 5.50209 2.01733C5.58185 2.05036 5.65432 2.09879 5.71537 2.15983L10.0904 6.53483C10.1515 6.59587 10.1999 6.66837 10.233 6.74818C10.266 6.82799 10.2829 6.91353 10.2828 6.9999C10.2827 7.08627 10.2656 7.17177 10.2324 7.2515C10.1992 7.33123 10.1505 7.40362 10.0893 7.46452Z" fill="#667185"/>
</svg>
