<svg width="33" height="34" viewBox="0 0 33 34" fill="none" xmlns="http://www.w3.org/2000/svg">
<path d="M32.0051 28.9184L26.5598 3.02937C26.4894 2.69081 26.3528 2.3695 26.1578 2.08391C25.9628 1.79831 25.7134 1.55406 25.4237 1.36517C25.134 1.17628 24.8099 1.04649 24.47 0.983241C24.13 0.919996 23.7809 0.924547 23.4427 0.996632L15.7629 2.6471C15.0836 2.79584 14.4905 3.20677 14.1126 3.79052C13.7347 4.37427 13.6026 5.08362 13.7449 5.76429L19.1902 31.6533C19.3115 32.244 19.6325 32.7749 20.0992 33.1567C20.5659 33.5386 21.1498 33.7481 21.7528 33.7501C21.9392 33.7498 22.1251 33.73 22.3073 33.691L29.9871 32.0405C30.6672 31.8915 31.2609 31.4797 31.6389 30.8949C32.0168 30.3102 32.1485 29.5998 32.0051 28.9184ZM16.3125 5.2278C16.3125 5.21796 16.3125 5.21304 16.3125 5.21304L23.9906 3.57241L24.537 6.17609L16.8588 7.82819L16.3125 5.2278ZM17.3986 10.3909L25.08 8.74202L25.628 11.3506L17.9531 13.0011L17.3986 10.3909ZM18.488 15.5703L26.1694 13.9198L28.3514 24.2951L20.67 25.9456L18.488 15.5703ZM29.4375 29.4746L21.7594 31.1152L21.213 28.5116L28.8912 26.8594L29.4375 29.4598C29.4375 29.4697 29.4375 29.4746 29.4375 29.4746ZM11.0625 2.25007H3.1875C2.49131 2.25007 1.82363 2.52663 1.33134 3.01891C0.839062 3.5112 0.5625 4.17888 0.5625 4.87507V31.1251C0.5625 31.8213 0.839062 32.4889 1.33134 32.9812C1.82363 33.4735 2.49131 33.7501 3.1875 33.7501H11.0625C11.7587 33.7501 12.4264 33.4735 12.9187 32.9812C13.4109 32.4889 13.6875 31.8213 13.6875 31.1251V4.87507C13.6875 4.17888 13.4109 3.5112 12.9187 3.01891C12.4264 2.52663 11.7587 2.25007 11.0625 2.25007ZM3.1875 4.87507H11.0625V7.50007H3.1875V4.87507ZM3.1875 10.1251H11.0625V25.8751H3.1875V10.1251ZM11.0625 31.1251H3.1875V28.5001H11.0625V31.1251Z" fill="#0F973D"/>
</svg>
