<svg width="24" height="24" viewBox="0 0 24 24" fill="none" xmlns="http://www.w3.org/2000/svg">
<path d="M17.031 15.969C17.1008 16.0386 17.1561 16.1214 17.1938 16.2124C17.2316 16.3035 17.251 16.4011 17.251 16.4996C17.251 16.5982 17.2316 16.6958 17.1938 16.7868C17.1561 16.8779 17.1008 16.9606 17.031 17.0302L12.531 21.5302C12.4614 21.6 12.3787 21.6553 12.2876 21.693C12.1966 21.7308 12.099 21.7502 12.0004 21.7502C11.9019 21.7502 11.8043 21.7308 11.7132 21.693C11.6222 21.6553 11.5394 21.6 11.4698 21.5302L6.96979 17.0302C6.82906 16.8895 6.75 16.6986 6.75 16.4996C6.75 16.3006 6.82906 16.1097 6.96979 15.969C7.11052 15.8283 7.30139 15.7492 7.50042 15.7492C7.69944 15.7492 7.89031 15.8283 8.03104 15.969L12.0004 19.9393L15.9698 15.969C16.0394 15.8993 16.1222 15.8439 16.2132 15.8062C16.3043 15.7684 16.4019 15.749 16.5004 15.749C16.599 15.749 16.6966 15.7684 16.7876 15.8062C16.8787 15.8439 16.9614 15.8993 17.031 15.969ZM8.03104 8.03024L12.0004 4.05993L15.9698 8.03024C16.1105 8.17097 16.3014 8.25003 16.5004 8.25003C16.6994 8.25003 16.8903 8.17097 17.031 8.03024C17.1718 7.88951 17.2508 7.69864 17.2508 7.49961C17.2508 7.30059 17.1718 7.10972 17.031 6.96899L12.531 2.46899C12.4614 2.39926 12.3787 2.34394 12.2876 2.30619C12.1966 2.26845 12.099 2.24902 12.0004 2.24902C11.9019 2.24902 11.8043 2.26845 11.7132 2.30619C11.6222 2.34394 11.5394 2.39926 11.4698 2.46899L6.96979 6.96899C6.82906 7.10972 6.75 7.30059 6.75 7.49961C6.75 7.69864 6.82906 7.88951 6.96979 8.03024C7.11052 8.17097 7.30139 8.25003 7.50042 8.25003C7.69944 8.25003 7.89031 8.17097 8.03104 8.03024Z" fill="#667185"/>
</svg>
