<svg width="20" height="20" viewBox="0 0 20 20" fill="none" xmlns="http://www.w3.org/2000/svg">
<path d="M14.1925 13.3078C14.2506 13.3659 14.2967 13.4348 14.3282 13.5107C14.3597 13.5865 14.3758 13.6679 14.3758 13.75C14.3758 13.8321 14.3597 13.9135 14.3282 13.9893C14.2967 14.0652 14.2506 14.1341 14.1925 14.1922L10.4425 17.9422C10.3845 18.0003 10.3156 18.0464 10.2397 18.0779C10.1638 18.1093 10.0825 18.1255 10.0003 18.1255C9.91821 18.1255 9.83688 18.1093 9.76101 18.0779C9.68514 18.0464 9.61621 18.0003 9.55816 17.9422L5.80816 14.1922C5.69088 14.0749 5.625 13.9159 5.625 13.75C5.625 13.5842 5.69088 13.4251 5.80816 13.3078C5.92544 13.1905 6.0845 13.1247 6.25035 13.1247C6.4162 13.1247 6.57526 13.1905 6.69254 13.3078L10.0003 16.6164L13.3082 13.3078C13.3662 13.2497 13.4351 13.2036 13.511 13.1722C13.5869 13.1407 13.6682 13.1245 13.7503 13.1245C13.8325 13.1245 13.9138 13.1407 13.9897 13.1722C14.0656 13.2036 14.1345 13.2497 14.1925 13.3078ZM6.69254 6.69219L10.0003 3.3836L13.3082 6.69219C13.4254 6.80947 13.5845 6.87535 13.7503 6.87535C13.9162 6.87535 14.0753 6.80947 14.1925 6.69219C14.3098 6.57492 14.3757 6.41586 14.3757 6.25C14.3757 6.08415 14.3098 5.92509 14.1925 5.80782L10.4425 2.05782C10.3845 1.99971 10.3156 1.95361 10.2397 1.92215C10.1638 1.8907 10.0825 1.87451 10.0003 1.87451C9.91821 1.87451 9.83688 1.8907 9.76101 1.92215C9.68514 1.95361 9.61621 1.99971 9.55816 2.05782L5.80816 5.80782C5.69088 5.92509 5.625 6.08415 5.625 6.25C5.625 6.41586 5.69088 6.57492 5.80816 6.69219C5.92544 6.80947 6.0845 6.87535 6.25035 6.87535C6.4162 6.87535 6.57526 6.80947 6.69254 6.69219Z" fill="white"/>
</svg>
