<svg width="16" height="16" viewBox="0 0 16 16" fill="none" xmlns="http://www.w3.org/2000/svg">
<path d="M15.5 9.875V14.25C15.5 14.5815 15.3683 14.8995 15.1339 15.1339C14.8995 15.3683 14.5815 15.5 14.25 15.5H1.75C1.41848 15.5 1.10054 15.3683 0.866116 15.1339C0.631696 14.8995 0.5 14.5815 0.5 14.25V9.875C0.5 9.70924 0.565848 9.55027 0.683058 9.43306C0.800269 9.31585 0.95924 9.25 1.125 9.25C1.29076 9.25 1.44973 9.31585 1.56694 9.43306C1.68415 9.55027 1.75 9.70924 1.75 9.875V14.25H14.25V9.875C14.25 9.70924 14.3158 9.55027 14.4331 9.43306C14.5503 9.31585 14.7092 9.25 14.875 9.25C15.0408 9.25 15.1997 9.31585 15.3169 9.43306C15.4342 9.55027 15.5 9.70924 15.5 9.875ZM4.29766 4.48907C4.25028 4.37488 4.23784 4.2492 4.2619 4.12794C4.28595 4.00668 4.34543 3.89527 4.43281 3.80782L7.55781 0.682816C7.61586 0.624706 7.68479 0.578606 7.76066 0.547154C7.83654 0.515701 7.91787 0.499512 8 0.499512C8.08213 0.499512 8.16346 0.515701 8.23934 0.547154C8.31521 0.578606 8.38414 0.624706 8.44219 0.682816L11.5672 3.80782C11.6547 3.89523 11.7143 4.00663 11.7385 4.12794C11.7626 4.24924 11.7502 4.37498 11.7029 4.48925C11.6555 4.60351 11.5754 4.70116 11.4725 4.76983C11.3696 4.8385 11.2487 4.8751 11.125 4.875H8.625V9.875C8.625 10.0408 8.55915 10.1997 8.44194 10.3169C8.32473 10.4342 8.16576 10.5 8 10.5C7.83424 10.5 7.67527 10.4342 7.55806 10.3169C7.44085 10.1997 7.375 10.0408 7.375 9.875V4.875H4.875C4.75139 4.87498 4.63056 4.8383 4.52779 4.7696C4.42503 4.70091 4.34494 4.60328 4.29766 4.48907ZM6.38359 3.625H9.61641L8 2.0086L6.38359 3.625Z" fill="white"/>
</svg>
